/* XPM */
static char *atcjn_biz1y[] = {
/* columns rows colors chars-per-pixel */
"32 32 215 2 ",
"   c #17061E",
".  c #2D021F",
"X  c #230E19",
"o  c #34021E",
"O  c #3B021D",
"+  c #2B1619",
"@  c #3B1C15",
"#  c #382517",
"$  c #3E3018",
"%  c #100120",
"&  c #180622",
"*  c #2C0623",
"=  c #2E0D26",
"-  c #320B26",
";  c #340D2B",
":  c #24132A",
">  c #29162A",
",  c #2E192C",
"<  c #391726",
"1  c #34122C",
"2  c #3B1429",
"3  c #321C2E",
"4  c #2E1D30",
"5  c #311E30",
"6  c #352126",
"7  c #3A2225",
"8  c #2E2033",
"9  c #342031",
"0  c #3C2434",
"q  c #3E2935",
"w  c #3C2B39",
"e  c #44021E",
"r  c #4A031C",
"t  c #440B18",
"y  c #59071D",
"u  c #441B1A",
"i  c #66041B",
"p  c #6B051B",
"a  c #72041A",
"s  c #7B0419",
"d  c #7A051A",
"f  c #48270D",
"g  c #5B3607",
"h  c #56360A",
"j  c #442814",
"k  c #492912",
"l  c #4C3915",
"z  c #490722",
"x  c #540A21",
"c  c #570A23",
"v  c #451726",
"b  c #58142D",
"n  c #471933",
"m  c #571933",
"M  c #650922",
"N  c #63172C",
"B  c #6C122C",
"V  c #78122B",
"C  c #6B1531",
"Z  c #761B36",
"A  c #472020",
"S  c #483A25",
"D  c #452736",
"F  c #452C36",
"G  c #452F38",
"H  c #58293C",
"J  c #44313C",
"K  c #4C3339",
"L  c #58393C",
"P  c #7A233F",
"I  c #5F450C",
"U  c #6C4704",
"Y  c #714B02",
"T  c #6E560B",
"R  c #7D5C03",
"E  c #634912",
"W  c #7A640A",
"Q  c #736811",
"!  c #5B403F",
"~  c #4A3942",
"^  c #513F47",
"/  c #652641",
"(  c #7C2441",
")  c #792644",
"_  c #7B2948",
"`  c #5D4142",
"'  c #5B4949",
"]  c #5B4E51",
"[  c #5F5150",
"{  c #644442",
"}  c #684B47",
"|  c #6D4A46",
" . c #6B4D49",
".. c #724F49",
"X. c #6F5347",
"o. c #65524E",
"O. c #6B524C",
"+. c #75564A",
"@. c #7C574B",
"#. c #77594B",
"$. c #7B5A4D",
"%. c #6C5550",
"&. c #6C5A56",
"*. c #6C5E59",
"=. c #735B53",
"-. c #7C5F50",
";. c #6F645F",
":. c #776355",
">. c #7C6354",
",. c #73635C",
"<. c #7B6659",
"1. c #7E6A5C",
"2. c #7F7164",
"3. c #860316",
"4. c #85061B",
"5. c #89061A",
"6. c #82081E",
"7. c #8F091E",
"8. c #930416",
"9. c #9C0415",
"0. c #920518",
"q. c #99051A",
"w. c #A30314",
"e. c #AA0314",
"r. c #A60419",
"t. c #A4091C",
"y. c #B30314",
"u. c #B90314",
"i. c #850C23",
"p. c #8B0C22",
"a. c #990920",
"s. c #8D1027",
"d. c #841129",
"f. c #8B132B",
"g. c #891A34",
"h. c #951830",
"j. c #A90E22",
"k. c #B21D30",
"l. c #93243C",
"z. c #B72336",
"x. c #B3313F",
"c. c #C20315",
"v. c #C4081B",
"b. c #D10317",
"n. c #D30418",
"m. c #DD0319",
"M. c #D30B1E",
"N. c #E5051C",
"B. c #C5182A",
"V. c #CA192B",
"C. c #E30C22",
"Z. c #EA0C23",
"A. c #E71E31",
"S. c #ED1E33",
"D. c #F01E33",
"F. c #CB2536",
"G. c #DC2132",
"H. c #ED2538",
"J. c #F3263B",
"K. c #826706",
"L. c #897407",
"P. c #972844",
"I. c #982B47",
"U. c #843247",
"Y. c #D33547",
"T. c #E83749",
"R. c #F53E4E",
"E. c #F63F50",
"W. c #845D4D",
"Q. c #885F4E",
"!. c #835F51",
"~. c #885F50",
"^. c #A54756",
"/. c #84604F",
"(. c #8A614F",
"). c #836353",
"_. c #8B6453",
"`. c #8D6855",
"'. c #846758",
"]. c #856C5C",
"[. c #8C6C5B",
"{. c #906655",
"}. c #926A56",
"|. c #946B59",
" X c #996F5B",
".X c #8A705F",
"XX c #876F60",
"oX c #857263",
"OX c #8C7363",
"+X c #8B7867",
"@X c #867768",
"#X c #8A7A6A",
"$X c #917564",
"%X c #957B6A",
"&X c #987D6B",
"*X c #947F70",
"=X c #D44653",
"-X c #D84A57",
";X c #E2414E",
":X c #E84655",
">X c #F44B59",
",X c #D95160",
"<X c #ED5A63",
"1X c #F95864",
"2X c #D36269",
"3X c #EB6B72",
"4X c #F66D74",
"5X c #FA6C74",
"6X c #F8757B",
"7X c #8E8576",
"8X c #918373",
"9X c #FB7C81",
"0X c #F58C8C",
"qX c #F49E9A",
"wX c #F1A8A1",
/* pixels */
"7X*X%X%X%X$XOX[.XXXXOX[.$X[._.`.+X*.4 , ' <.<.<.<.].].<.<.].1.1.",
"+X|.|. X X{._.)._.`.{._.{.{._.~.].,.G 0 K { #.$.#.#.$.-.$.$.$.$.",
"oX[.|.|.|._._._._.`.{._._._._._.].2.X.L 3 0 } $.#.#.!.).$.#.$.>.",
"XX[.{.`.{.`._._.`.!...{ { { { | <.@X-.` > > ! #.#.$.W.).$.#.$.).",
"@XOX|.[.[.`._.).[.=.F > > > , G *.2.-.' , , ` #.#.'.'.'.<.>.-.'.",
"+X+X%X+X.X.X].>.*.' 7 + + # $ S ' [ ' ' w J o.:.<.@XOXoXoX2.oX@X",
"`.{. X X{.{._.+.G 6 k h g T L.Q S > > 9 L } X.+.:.oX(._.`._.`.}.",
"| +._.|.{._.+.L 7 @ g Y R K.L.Q j X   : J ` L ` =.oX(._.{._.{. X",
", G $.}.}.@.F < k g U R L.W l # f f X & : > > 0 o.oX_.`.{._.}. X",
"0 G `  .| L 7 @ g Y R K.W E A < j f t z c b m H ` &./.`.`.{. X$X",
";.] w 4 4 6 k g U R L.W l v N N < t s j.z.Y.=X^.H J &.oX@X8X8X8X",
"].O.J 9 9 7 j f h I T E u z d.d.c r a a.B.Y.>X-XU.H ` O.1.8X+XOX",
"'.-.+.O. .L < X X + + @ y s t.t.s y r y i.k.T.:X,X^.H D O.#X].].",
"].'.'.=.} L 2 o O O o r s t.B.F.x.l.b c p.z.:X1X1X=XZ b L *.<.'.",
"].'.). .q 2 c a s s a s w.B.;X<X3X2Xz.j.F.:X6X6X1XT.V.a.c J %.'.",
"oXoX1.o.4 * M p.q.9.q.t.B.G.R.1X6X4X-X;X<X4X9X5XR.S.C.r.r 8 &.oX",
"8X#XoXo.4 - B f.p.q.e.v.G.H.S.H.E.1X6X0XwXqX4XR.S.C.n.9.e , &.*X",
" X|._.| 3 - Z l.i.0.e.v.G.A.Z.Z.D.R.5X0XqX0X>XD.Z.m.c.8.O , | |.",
"{.{._.| 3 ; ) P.f.5.w.y.v.M.m.N.Z.S.R.>X1X>XH.Z.N.m.u.3.O , | {.",
"`.|.{.| 3 ; _ I.f.5.9.e.y.c.n.m.N.Z.D.J.J.S.C.m.n.c.e.s o , | _.",
"[.|.`. .5 1 _ I.f.5.9.w.e.y.c.b.m.N.Z.Z.Z.C.n.c.u.e.0.p o 3 | _.",
"OXOXXX&.~ D / P g.s.q.9.w.e.y.c.b.m.N.N.m.n.c.u.e.8.a c 2 J %.oX",
"[.{.`.!.$.{ n n ( l.s.0.9.w.e.y.c.b.m.m.b.c.c.u.e.3.r 2 L | @.1.",
"[.|.|.{.{...3 ; _ I.f.5.8.9.w.e.y.c.b.b.c.u.u.y.w.s o , { W.@.<.",
"|. X{.{.{...3 1 _ I.f.4.4.0.9.w.e.y.c.c.y.e.e.w.0.p o , { @.@.].",
"|.|._._.`.@.K D / P g.f.6.5.8.9.9.w.y.y.y.e.w.8.a c v F | W.Q.].",
"OXOXoXoX@XoX,.] 0 n ( l.s.4.4.5.5.0.w.e.y.y.e.3.r 2 ' *.1.].].oX",
"`._.'.].].].[.O.8 ; ( P.f.i.6.s p a 7.t.y.y.w.s o ,  .'.).).).).",
"_._._._._.(.{. .4 - Z l.g.f.i.p e z V h.t.w.0.p o , | Q.Q.Q.Q.(.",
"_.{.`._._._._. .w 1 b C C B M c 1 2 b B a a i y - 0 | W.Q.(.Q.(.",
"{. X{.{.{._.$. .^ 0 1 * * * * 1 F F 1 * . . . = 0 L } @.W.Q.(.(.",
"%X&X&X&X&X@X,.&.] ~ : % % % % : ~ ~ : % % % % : J ' o.=.<.].].[."
};
