/* XPM */
static char *ag4ou_uoc3o[] = {
/* columns rows colors chars-per-pixel */
"32 32 170 2 ",
"   c None",
".  c #220E1F",
"X  c #26111F",
"o  c #29141E",
"O  c #2C1B1F",
"+  c #391E19",
"@  c #321F1F",
"#  c #37271F",
"$  c #0C0222",
"%  c #140525",
"&  c #190C2C",
"*  c #180823",
"=  c #2C0624",
"-  c #2C0825",
";  c #220B2A",
":  c #2E0D2B",
">  c #200927",
",  c #340723",
"<  c #3B0722",
"1  c #320824",
"2  c #330D2A",
"3  c #33112F",
"4  c #391723",
"5  c #361231",
"6  c #381332",
"7  c #3C2E20",
"8  c #44111C",
"9  c #7B0A1E",
"0  c #7B071E",
"q  c #55340F",
"w  c #5A370E",
"e  c #5C390D",
"r  c #442613",
"t  c #4B2813",
"y  c #462813",
"u  c #42311A",
"i  c #4D3715",
"p  c #5B3D11",
"a  c #430622",
"s  c #440925",
"d  c #4B0922",
"f  c #490C2A",
"g  c #4A0A25",
"h  c #540B23",
"j  c #570720",
"k  c #401F20",
"l  c #541025",
"z  c #441C36",
"x  c #4C1D37",
"c  c #4F1834",
"v  c #5E1832",
"b  c #571935",
"n  c #6C0B21",
"m  c #750C21",
"M  c #7A0C21",
"N  c #6A1027",
"B  c #621C32",
"V  c #731A33",
"C  c #7D1930",
"Z  c #422026",
"A  c #76213C",
"S  c #53451A",
"D  c #6C490B",
"F  c #734E08",
"G  c #7F5E0A",
"H  c #674F11",
"J  c #6A5314",
"K  c #695119",
"L  c #786913",
"P  c #7B7216",
"I  c #6A2744",
"U  c #7C2B47",
"Y  c #7C3049",
"T  c #850C1E",
"R  c #8B0C1E",
"E  c #940C1D",
"W  c #9C0B1C",
"Q  c #A40B1B",
"!  c #AA0B1A",
"~  c #B40B1B",
"^  c #BA0B1B",
"/  c #820F23",
"(  c #940B21",
")  c #831124",
"_  c #8B1225",
"`  c #86162B",
"'  c #8E162A",
"]  c #8A192E",
"[  c #901123",
"{  c #901A2F",
"}  c #8C1D33",
"|  c #861A33",
" . c #A30E21",
".. c #AE0920",
"X. c #A61224",
"o. c #AB1122",
"O. c #A01A2E",
"+. c #87293A",
"@. c #93233A",
"#. c #A42434",
"$. c #B82436",
"%. c #B1313E",
"&. c #C30B1C",
"*. c #CA0B1E",
"=. c #D40B1E",
"-. c #DA0A1E",
";. c #E10A1F",
":. c #C31424",
">. c #C51C2D",
",. c #C81424",
"<. c #D51425",
"1. c #C71D31",
"2. c #E20B20",
"3. c #E90D23",
"4. c #E41226",
"5. c #EA1126",
"6. c #EC152A",
"7. c #CC2736",
"8. c #DD2636",
"9. c #EF2337",
"0. c #ED2638",
"q. c #EE2A3C",
"w. c #E12737",
"e. c #F12135",
"r. c #F52C3F",
"t. c #805E09",
"y. c #82640B",
"u. c #8B720C",
"i. c #92770A",
"p. c #816C10",
"a. c #887B12",
"s. c #822A45",
"d. c #962941",
"f. c #992B44",
"g. c #9C2F49",
"h. c #80304D",
"j. c #9E334C",
"k. c #C5394B",
"l. c #DB3B45",
"z. c #F12F41",
"x. c #EA3C4B",
"c. c #ED3748",
"v. c #9F4557",
"b. c #A04556",
"n. c #C84D5C",
"m. c #D94A56",
"M. c #E44451",
"N. c #F64553",
"B. c #F34D5A",
"V. c #F94957",
"C. c #EF555E",
"Z. c #F3515C",
"A. c #D65360",
"S. c #FE5A65",
"D. c #CE646B",
"F. c #FB626B",
"G. c #F0666D",
"H. c #FB6C73",
"J. c #E97C7F",
"K. c #F5767B",
"L. c #FC767C",
"P. c #F87479",
"I. c #928610",
"U. c #FF7E83",
"Y. c #FE8588",
"T. c #F2918F",
"R. c #F79A97",
"E. c #F5A29D",
"W. c #F2ADA5",
"Q. c #F5B2AA",
/* pixels */
"                                    % %                         ",
"                                    % %                         ",
"                                        % %                     ",
"                                        % %                     ",
"                    % % % % % %         % %                     ",
"                    o o o @ # 7         % %                     ",
"                % X r q p J a.P 7 % % %                         ",
"                X + w F t.u.I.P u . * %                         ",
"% %         % X r w D G i.p.S u i r X % % % % $                 ",
"% %         X + e F G y.p.K k 4 y t 8 s f c x x                 ",
"    % % % o y e D y.i.p.i Z B v 4 8 9 X.$.k.n.b.z $             ",
"    % % % o y q p H L K 4 f ` ` g a 0 o.7.x.S.A.Y z             ",
"            X o O O # 4 l m  . .m j a h ) $.x.B.A.v.z $         ",
"            = 1 , , = a m X.>.7.%.+.l d / $.M.S.F.m.V <         ",
"        % = h n 9 9 n m W >.M.G.J.D.#.Q 1.M.K.U.S.c.>.( a %     ",
"        % 1 N [ W W E  .:.8.N.H.Y.K.m.l.C.H.Y.L.N.e.5...a %     ",
"        % 2 V { _ E ! :.8.q.0.z.V.F.K.T.W.E.H.N.9.4.-.W a %     ",
"        % 2 A @.` R ! ,.w.0.5.3.e.N.L.R.Q.R.B.e.5.-.*.R < %     ",
"        % 5 U f.] R Q ~ ,.<.2.3.5.9.N.S.F.Z.q.5.3.-.^ T < %     ",
"        % 6 h.j.] R W ! ~ &.=.;.;.5.e.r.r.9.4.-.-.*.! 9 , %     ",
"        % 6 h.j.] R W Q ! ~ &.=.;.3.5.6.6.4.=.&.^ ! W n 1 %     ",
"        % 5 I s.| ' ( W Q ! ~ &.=.2.2.2.;.=.&.^ ! E m h - %     ",
"            3 c s.d.' R W Q ! ~ &.=.2.2.=.&.&.^ ! T d -         ",
"            $ 5 Y j.] T E W Q ! ~ &.=.=.&.^ ^ ~ Q 9 , %         ",
"            % 5 h.j.] T T E W Q ! ~ &.&.~ ! ! Q E n 1 %         ",
"            % 5 I s.} ` ) T E W W Q ~ ~ ! ! Q E m h - %         ",
"                5 c s.d.` T T R R E Q ! ~ ~ ! T d -             ",
"                $ 3 U g.} ) / M n m [ o.~ ^ ! 9 , %             ",
"                % 2 A f.@.} _ n a f C O.o.! E n 1 %             ",
"                % : v V V V N h = : v V M 9 n h - %             ",
"                  ; : 2 2 2 1 - > ; : 2 , , 1 - ;               ",
"                  & % % % % % %     % % % % % % &               "
};
