/* XPM */
static char *a6q73_zgvn5[] = {
/* columns rows colors chars-per-pixel */
"32 32 79 1 ",
"  c #755649",
". c #7E5749",
"X c #765A4C",
"o c #7B5C4D",
"O c #775F50",
"+ c #7C5F50",
"@ c #776355",
"# c #7D6253",
"$ c #7B6759",
"% c #7E6B5C",
"& c #7F6F60",
"* c #7F7162",
"= c #845C4D",
"- c #895E4E",
"; c #845F50",
": c #885F50",
"> c #82604F",
", c #8A604F",
"< c #836453",
"1 c #8B6353",
"2 c #846857",
"3 c #8D6855",
"4 c #846758",
"5 c #8C6758",
"6 c #846B5B",
"7 c #8B6C5C",
"8 c #916655",
"9 c #926A56",
"0 c #936B59",
"q c #946D58",
"w c #956F59",
"e c #966E59",
"r c #966D5B",
"t c #916F5F",
"y c #996F59",
"u c #996F5C",
"i c #8A705E",
"p c #8A705F",
"a c #8E715D",
"s c #97715B",
"d c #94725D",
"f c #99715B",
"g c #836F60",
"h c #846F60",
"j c #896F60",
"k c #837161",
"l c #877263",
"z c #827464",
"x c #827465",
"c c #857464",
"v c #867564",
"b c #887061",
"n c #8E7162",
"m c #897465",
"M c #8A7465",
"N c #8D7464",
"B c #8F7766",
"V c #8B7867",
"C c #8C7967",
"Z c #8F7867",
"A c #877768",
"S c #837869",
"D c #877A6C",
"F c #8A7869",
"G c #8A7A6A",
"H c #887E6F",
"J c #8B7E6F",
"K c #907565",
"L c #957864",
"P c #967B6A",
"I c #977B6A",
"U c #927C6B",
"Y c #987D6B",
"T c #8A7F70",
"R c #947F70",
"E c #8F8273",
"W c #8A8274",
"Q c #8E8576",
"! c #918373",
/* pixels */
"QRPPPKB7jjnjK715FD%$$%%#%66%$6%%",
"Ftrur81<1381881:6v#oXo;o Xo;oooo",
"l70r011113831111hz+X oooXX;<oXo#",
"h7930311331::1116A+  ooXXo=<oXo<",
"Ant7731<7n646bMMDz###oXXX<44###2",
"MZPBii66FWSzzzzzFk%&%@$@$Dbvz*kM",
"99rr9939aH6###<<<#+oooXX#v,13130",
"rrrr99q97H6#o##<4#O+ooX @k11919r",
"frrqrrrr7D<<<###<####oXX%l11919y",
"drrrssrfLH64<<<#<#<#oooo%v3339sf",
"TDlMZZZUUEFvlvlllkk6%6k*SDVvV!!!",
"6446667777666F2<<<<4<##<6<44l!Fb",
"2<<<<22662662b2<<<<<<<o=<=o<4H66",
"64<#<2646224<l644<<<<<>o>><<4D64",
"62<##<2442<<4l2<<<1<<<<>>>><<Dh4",
"vk%%gMFFMvkMlzvkl666lll62<664DFM",
"!Hv66KKEEZMUUi6lFvvvbbnvv27727Z!",
"r011888BB8898,==1111,,,47111111r",
"8813081bB881,-=-1,1,,--171111118",
"3r88811hb,-=====,=111-=178111111",
"7031777Fb1=o<<==<<<13<<lv3311331",
"bnjkFHFFFv%%*kkz66466446h666666v",
"29310r0311<<<<<6;=====o==11:===6",
"70089981=11==,<6:========111==.%",
"rr98991,=,1==1=6:========-11==o6",
"0011391<=<3-=11M3<===:====1====i",
"nnllvMFDvvFM6ggAvg66k%%*klvkg66k",
"3126627bS%$#O####OOO##O@k226<<<<",
"11111195z#OooO#OooXXXooX#,1,,-=,",
"13311193l###<#<#oXXXXXXX#-111,=,",
"9r99939rl##<5<<<+XXXXooX4,11,-,,",
"UYPYUUZZDvAMZlh66$$@$%%$k77b6767"
};
