/* XPM */
static char *a27qw_6nrx9[] = {
/* columns rows colors chars-per-pixel */
"32 32 197 2 ",
"   c #451505",
".  c #4A1605",
"X  c #4D1907",
"o  c #4D1C0D",
"O  c #511907",
"+  c #541C09",
"@  c #5D1D09",
"#  c #601F0A",
"$  c #5D2405",
"%  c #4E2D1F",
"&  c #5C2C19",
"*  c #612505",
"=  c #64210C",
"-  c #6A220C",
";  c #642C08",
":  c #74260E",
">  c #7A290E",
",  c #6E340B",
"<  c #79310E",
"1  c #6F2B11",
"2  c #712F16",
"3  c #7E2C11",
"4  c #6E3A14",
"5  c #60331C",
"6  c #7A3213",
"7  c #773C16",
"8  c #74341B",
"9  c #7D3B1C",
"0  c #4C2E24",
"q  c #553C31",
"w  c #6C3323",
"e  c #743B24",
"r  c #793D24",
"t  c #763E2B",
"y  c #754119",
"u  c #7E431A",
"i  c #78412D",
"p  c #734534",
"a  c #794A35",
"s  c #774F41",
"d  c #7C5443",
"f  c #785547",
"g  c #755649",
"h  c #765A4C",
"j  c #7A5B4D",
"k  c #765E50",
"l  c #7C5F50",
"z  c #776355",
"x  c #7C6254",
"c  c #7B6758",
"v  c #7E6A5C",
"b  c #7F7161",
"n  c #862D12",
"m  c #8A2F13",
"M  c #843113",
"N  c #893813",
"B  c #843C19",
"V  c #923A16",
"C  c #814008",
"Z  c #934C0C",
"A  c #82431D",
"S  c #8B4619",
"D  c #9F4E16",
"F  c #9B451A",
"G  c #88541E",
"H  c #995215",
"J  c #9B5516",
"K  c #9F5819",
"L  c #A85B07",
"P  c #A04E17",
"I  c #A45212",
"U  c #A85914",
"Y  c #A6541C",
"T  c #BC670F",
"R  c #BA6D1D",
"E  c #B8731E",
"W  c #854A23",
"Q  c #8A4D23",
"!  c #854D29",
"~  c #8A5226",
"^  c #955627",
"/  c #AB5920",
"(  c #AA6426",
")  c #AF6D28",
"_  c #B46524",
"`  c #BA6622",
"'  c #B26A23",
"]  c #BA7826",
"[  c #A97230",
"{  c #BF7932",
"}  c #C5700C",
"|  c #C37B1D",
" . c #D47D14",
".. c #C57521",
"X. c #CB7C23",
"o. c #CC7C2A",
"O. c #C87D35",
"+. c #825443",
"@. c #845A44",
"#. c #895842",
"$. c #835C4D",
"%. c #895E4D",
"&. c #845F50",
"*. c #885F50",
"=. c #866149",
"-. c #8A614F",
";. c #836454",
":. c #8C6453",
">. c #866857",
",. c #8D6955",
"<. c #836758",
"1. c #846B5C",
"2. c #8B6C5C",
"3. c #916655",
"4. c #926A56",
"5. c #946C59",
"6. c #996F5B",
"7. c #85705F",
"8. c #8A705F",
"9. c #96715B",
"0. c #99725C",
"q. c #856E60",
"w. c #8A6F60",
"e. c #847363",
"r. c #8B7464",
"t. c #8D7967",
"y. c #867768",
"u. c #86796A",
"i. c #8A796A",
"p. c #8B7A6B",
"a. c #917564",
"s. c #957A69",
"d. c #947C6A",
"f. c #987D6B",
"g. c #8A7F70",
"h. c #947F70",
"j. c #CB812C",
"k. c #DB8925",
"l. c #D8872B",
"z. c #D48B2A",
"x. c #DC942C",
"c. c #CD8433",
"v. c #CF8A36",
"b. c #C78939",
"n. c #D48C36",
"m. c #D5903F",
"M. c #D3973E",
"N. c #D2993B",
"B. c #E29435",
"V. c #E39A35",
"C. c #EC9C36",
"Z. c #E29B3C",
"A. c #E99938",
"S. c #E7A239",
"D. c #ECA33A",
"F. c #8C8475",
"G. c #918373",
"H. c #D79948",
"J. c #E39D41",
"K. c #E89C43",
"L. c #DFA44D",
"P. c #E3A342",
"I. c #EBA345",
"U. c #E2A847",
"Y. c #ECA64C",
"T. c #EAAA4C",
"R. c #F1AA46",
"E. c #F3AD4A",
"W. c #E8B34B",
"Q. c #F4B14E",
"!. c #EAAE53",
"~. c #E4AE5B",
"^. c #EABC54",
"/. c #ECB459",
"(. c #F6B351",
"). c #F5B453",
"_. c #F6B656",
"`. c #F5B956",
"'. c #F8BA57",
"]. c #F7B95A",
"[. c #F8BD5B",
"{. c #F4BD63",
"}. c #E7BD70",
"|. c #F4C55D",
" X c #F9C15E",
".X c #F6C463",
"XX c #FAC462",
"oX c #FBC867",
"OX c #F4C769",
"+X c #FCCD6C",
"@X c #F8D46E",
"#X c #E9C275",
"$X c #F4CA7A",
"%X c #F8CD7A",
"&X c #FED575",
"*X c #FEDA7B",
"=X c #FBE5A5",
/* pixels */
"F.h.s.f.s.a.r.2.w.r.r.2.a.2.:.,.i.u.v c c v <.c v 1.1.<.c 1.v v ",
"i.5.5.6.5.3.:.;.:.,.3.:.3.3.:.*.1.e.l h h j &.h g h j &.j h j j ",
"e.2.4.5.3.:.:.:.:.,.3.,.:.:.:.:.q.y.l g g j j h h h &.;.h h j x ",
"q.2.3.,.3.,.:.:.,.3.:.*.&.:.:.:.1.y.l g g h h h h j $.;.h g h ;.",
"y.r.5.2.2.,.:.;.2.r.1.<.1.r.t.t.i.y.x x x j h h h ;.<.<.c x l >.",
"t.t.s.a.8.8.1.1.i.F.y.v c c c v 1.c l x z z c z c u.r.e.y.b e.t.",
"3.3.9.5.3.3.,.3.2.e.@.8 8 8 8 8 8 8 8 2 e d f g x e.-.:.,.:.,.4.",
"5.5.5.5.4.3.5.3.+.W R X.c.m.m.m.H.H.m.o.R J e s c e.:.:.4.:.3.5.",
"9.5.5.5.5.5.5.#.S X.V.E.Q.(._.].(.[.XXE.D.l.Y e x e.:.:.3.:.5.6.",
"9.5.5.5.9.0.-.A X.D.Q._.(.Q.{.%X_.(.]._._.E.l.D p e.,.,.,.3.9.0.",
"g.u.e.t.t.t.=.K V.Q._._.(.Q._.]._._.(.(.OX%XR...! 1.t.e.i.G.G.G.",
"1.<.<.1.1.j 9 j.(.oX+XoX[.`.).(.].XXQ.Q.[.].E.B.P t ;.<.e.G.i.r.",
">.;.;.;.;.f 9 H.oX&X*X&X&X+XXX[.].[.R.Q.XXQ.E.A.I w j ;.>.i.1.1.",
"1.>.;.;.;.f 6 z. X+X*X&X=X*X&X+XoXXXI.Y._.E.`.D.U w $.;.>.u.1.;.",
"1.<.;.x l a B | D.!.}.~.#X{..X.X X`.A.K.I.Z.P.x.Z w $.;.;.u.q.>.",
"e.e.v v k 5 ' W.S.` H H ' n.V.V.S.S.V.x.z.| ] c.G % h <.<.u.i.t.",
"G.i.e.1.h & ( H._ V > < _ M.U.W..XOX|.|.^.N.( V 3 o q 1.1.2.t.G.",
"5.4.:.:.$.& 1 B 3 m m 3 V F ` c.$X=X*X@XL./ M - @   0 *.:.:.:.5.",
"3.3.:.3.3.s + X + : 3 : n n m F O./.^.b.Y M : = O   q %.*.:.:.3.",
",.5.3.3.3.+.= ; $ X X @ = # - : N ) [ 6 = O O + . 5 $.:.*.:.:.:.",
"2.4.,.:.2.$.6 j.E y ; $ X . + O . X + O     * , * w ,.,.:.,.,.,.",
"r.r.2.e.i.1.a b.T.U.E J 7 y A u 4 4 7 7 4 C L L S p 1.1.1.1.1.e.",
"2.3.,.:.4.5.$.Q j.).E./.T.!.!.T.Z.J.J.B.k. .} Z i %.:.&.$.$.$.1.",
"2.4.4.3.3.3.,.#.^ { H.%XoXoX X'.E.E.R.C.k.T I ! $.:.:.*.$.$.f v ",
"5.5.3.3.3.3.:.-.a r ^ { j.v.v.c.X.j.j...U A t +.$.%.:.:.$.$.j 1.",
"4.5.:.:.,.3.:.:.$.$.@.r S Q ~ ~ Q Q Q u i $.$.$.$.$.:.$.$.$.$.7.",
"r.r.e.e.e.t.i.u.e.e.i.e.<.1.1.e.7.<.<.v v v v b e.e.e.e.q.1.1.e.",
",.:.>.1.1.1.2.r.u.v v x l x x x x l l x x x k z e.>.1.1.;.;.;.;.",
":.:.:.:.:.:.3.>.y.x j j j l x l j j h h h j j h c %.-.%.%.%.$.-.",
":.3.,.:.:.:.3.,.e.x x x ;.x ;.x j h h h h h h h c %.:.-.-.-.%.-.",
"3.5.3.3.3.,.3.5.e.x x ;.>.;.;.>.l h h h h j h h <.-.:.:.-.%.-.-.",
"s.f.f.f.d.d.t.t.u.e.y.t.t.e.1.1.1.c c z c v v c e.2.2.8.1.2.1.2."
};
