/* XPM */
static char *aefrq_wmvgd[] = {
/* columns rows colors chars-per-pixel */
"32 32 152 2 ",
"   c #1D2122",
".  c #17252C",
"X  c #3E2F28",
"o  c #2B343C",
"O  c #2B383F",
"+  c #34373F",
"@  c #33383F",
"#  c #3F3C3D",
"$  c #44352D",
"%  c #423F3F",
"&  c #5D483D",
"*  c #3C2F4D",
"=  c #273943",
"-  c #2C3B44",
";  c #2B3E48",
":  c #303242",
">  c #343F45",
",  c #3A3A43",
"<  c #3A3548",
"1  c #323F48",
"2  c #40344A",
"3  c #452F53",
"4  c #4F2D5A",
"5  c #532C5D",
"6  c #5C3261",
"7  c #553768",
"8  c #652B69",
"9  c #6B2B6E",
"0  c #782A78",
"q  c #2A414F",
"w  c #324047",
"e  c #3C4246",
"r  c #33424A",
"t  c #3E464A",
"y  c #2D4556",
"u  c #2D4A5B",
"i  c #364750",
"p  c #354E66",
"a  c #2F5063",
"s  c #305266",
"d  c #33566C",
"f  c #37596E",
"g  c #3F5C6B",
"h  c #345D76",
"j  c #395F75",
"k  c #424546",
"l  c #4D4542",
"z  c #434548",
"x  c #484649",
"c  c #474C4B",
"v  c #494B4A",
"b  c #544642",
"n  c #564C47",
"m  c #5B4C45",
"M  c #544D49",
"N  c #5D534C",
"B  c #464B50",
"V  c #4C4E51",
"C  c #475156",
"Z  c #664D45",
"A  c #684F47",
"S  c #6A5145",
"D  c #62544C",
"F  c #6B5449",
"G  c #65584E",
"H  c #6C594F",
"J  c #715347",
"K  c #755649",
"L  c #7E5749",
"P  c #75594C",
"I  c #7A5B4D",
"U  c #635B53",
"Y  c #6A5D52",
"T  c #755D51",
"R  c #7C5F50",
"E  c #5E625F",
"W  c #666057",
"Q  c #6C6156",
"!  c #67625A",
"~  c #6A665D",
"^  c #746053",
"/  c #7C6254",
"(  c #736559",
")  c #7B6759",
"_  c #75685C",
"`  c #7E6B5C",
"'  c #425B69",
"]  c #40677F",
"[  c #7C6F62",
"{  c #7F7161",
"}  c #7E7468",
"|  c #7E7A6D",
" . c #845C4D",
".. c #895E4D",
"X. c #845F50",
"o. c #885F50",
"O. c #8A614F",
"+. c #836454",
"@. c #8C6353",
"#. c #866857",
"$. c #8D6955",
"%. c #836758",
"&. c #856B5C",
"*. c #8B6C5C",
"=. c #916655",
"-. c #926A56",
";. c #946C59",
":. c #996F5B",
">. c #8A705F",
",. c #95705B",
"<. c #99725C",
"1. c #856F60",
"2. c #8A6F60",
"3. c #847363",
"4. c #8B7463",
"5. c #8D7967",
"6. c #867768",
"7. c #85796A",
"8. c #86796A",
"9. c #8A7869",
"0. c #8B7B6B",
"q. c #907666",
"w. c #957A69",
"e. c #947C6A",
"r. c #987D6B",
"t. c #8A7F70",
"y. c #947F70",
"u. c #8E8576",
"i. c #918373",
"p. c #396782",
"a. c #396883",
"s. c #3A6984",
"d. c #3B6B88",
"f. c #3D6E8C",
"g. c #3D708E",
"h. c #3F7393",
"j. c #3F7494",
"k. c #417797",
"l. c #42799B",
"z. c #437C9F",
"x. c #437DA1",
"c. c #447EA2",
"v. c #4581A6",
"b. c #4684A9",
"n. c #4786AC",
"m. c #4887AE",
"M. c #4888AF",
"N. c #4A8CB3",
"B. c #4A8CB4",
"V. c #4B8FB8",
"C. c #4C90BA",
"Z. c #4D92BC",
/* pixels */
"u.y.w.w.w.q.4.*.2.2.4.*.q.*.@.$.9.8.` ) ) ` ` / ` &.&.` ) &.` ` ",
"9.;.;.:.:.=.@.+.@.$.=.@.=.=.@.o.1.3./ I I I  .I K P I X.I I I I ",
"3.*.-.;.-.@.@.@.@.$.=.$.@.@.@.@.1.3.R I K I I I P I X.+.I P I R ",
"1.*.-.$.-.$.@.@.$.$.$.o.o.@.@.@.&.6.R K K I I I I I  .+.I K I +.",
"6.4.;.*.*.$.@.+.*.4.&.%.&.4.4.5.9.3./ / / I P P P +.%.%./ / R %.",
"5.5.w.q.>.>.&.&.9.| ! ! ! ! ! ! ~ ! U U U D U Y ( 8.4.3.3.3.3.5.",
"-.-.:.:.-.-.$.-.&.E i r r r r w w - - 1 w ; - % Y 3.O.$.$.$.$.-.",
":.:.:.;.-.-.-.$.N g k.l.l.l.j.d.p.u u a.s.p.u o x ( O.$.-.$.-.:.",
"<.:.:.;.;.:.$.D ' l.C.Z.Z.B.b.c.l.s.d.z.x.l.s * 6 M I $.-.$.-.:.",
",.;.;.;.:.<.%.k s.C.Z.Z.Z.B.n.b.c.z.z.x.x.l.s 4 0 2 F $.$.-.,.<.",
"t.8.3.5.5.5.[ t s.C.Z.Z.Z.V.B.B.v.x.x.x.x.l.s 3 8 < W 5.9.i.i.i.",
"&.%.%.&.&.&./ e s.C.Z.Z.Z.N.m.N.v.x.x.x.z.k.p : : @ G %.3.i.9.4.",
"%.+.+.+.+.&./ e s.C.Z.Z.Z.V.N.b.x.x.x.x.k.d 7 5 + m P +.%.9.&.&.",
"&.+.+./ / &./ e s.C.Z.Z.Z.Z.N.c.x.x.x.x.h.y 8 9 , P +.+.%.8.&.+.",
"&.%.+./ / +.T e d h.h.h.h.v.N.c.z.x.x.x.h.y 4 5 , P +.+.+.8.1.%.",
"3.3.` ` 1.5.[ c r r w ; y f.N.v.v.c.x.l.s.q : , k ^ &.&.%.8.9.5.",
"i.9.3.&.4.q.4.} [ ) U w p.M.C.B.B.b.c.f.y O M ( _ %.*.*.&.*.5.i.",
":.-.@.@.=.=.=.q.4.-.I r j.Z.Z.Z.Z.B.b.s.- b I %.*.@.@.@.@.@.@.;.",
"=.=.@.$.=.$.@.4.4.=.I r j.Z.Z.Z.Z.Z.B.g.- l m H &.@.@.o.o.@.@.=.",
"$.;.=.=.=.@.@.1.4.O.J r j.Z.Z.Z.Z.Z.C.l.s u ; v &.=.@.@.o.@.@.@.",
"*.-.$.$.*.*.*.9.4.@.S w j.Z.Z.Z.Z.C.M.v.v.l.a c 3.$.$.$.@.$.$.$.",
"4.4.4.3.9.9.9.9.9.3.Q w j.Z.Z.Z.C.N.v.c.l.d ; v ` &.&.&.&.&.&.3.",
"&.-.$.$.-.:.-.$.@.$.P r j.Z.Z.Z.C.B.b.h.s = # Z  .@.@.o. . ...` ",
"*.-.-.=.-.-.=.@...@.K r j.V.v.g.f.b.N.s.; # Z L  .@.@.o... .L ` ",
";.;.-.=.-.-.@.O. ...P z s.c.p.; r ] c.s.w A  . . ...@.@... .L &.",
"-.-.$.@.$.-.$.+. .+.$.P B j h > D V f h - S .. . ...@..... ...&.",
"4.4.3.3.3.5.9.8.3.3.9.3.Y C q > ( Q k .   D ` { 3.3.3.3.&.&.&.3.",
"$.$.#.&.&.&.*.4.8.` ) / R D l n T R & X $ S R ) 3.%.&.#.+.+.+.+.",
"$.$.$.@.O.O.=.#.3./ I I I R / I I I P P P I I P / ..O.........O.",
"$.-.$.$.@.@.=.$.3./ / / +./ +./ I P P P P P P P / ..@.@.O.O...O.",
"-.:.-.-.-.$.-.;.3./ / +.#.+.+.+.R P P P P I I P %.O.@.@.O...O.O.",
"w.r.r.r.e.e.5.5.8.3.6.5.5.3.&.&.&.) ) ) ) ` ` ) 3.*.*.>.&.&.&.*."
};
