/* XPM */
static char *ae5c5_s240q[] = {
/* columns rows colors chars-per-pixel */
"32 32 169 2 ",
"   c #2C303F",
".  c #32393E",
"X  c #3D2F4C",
"o  c #2A3640",
"O  c #2B3C45",
"+  c #273D4A",
"@  c #283D48",
"#  c #363245",
"$  c #343D41",
"%  c #3B3F41",
"&  c #34334A",
"*  c #3B334B",
"=  c #3D3351",
"-  c #4F2D59",
";  c #542C5D",
":  c #543557",
">  c #4E3561",
",  c #6C2B6F",
"<  c #7A2A79",
"1  c #2B414D",
"2  c #344045",
"3  c #3B4345",
"4  c #30434D",
"5  c #3A4449",
"6  c #2C4452",
"7  c #2F4857",
"8  c #2C4A5B",
"9  c #314652",
"0  c #3B4B53",
"q  c #2E4E61",
"w  c #2F5164",
"e  c #305063",
"r  c #3C5361",
"t  c #32566B",
"y  c #33586D",
"u  c #355D75",
"i  c #3D5871",
"p  c #38637D",
"a  c #454544",
"s  c #4C4441",
"d  c #404749",
"f  c #464C4C",
"g  c #4B4E4D",
"h  c #534A46",
"j  c #5C4C45",
"k  c #574F4A",
"l  c #584F4A",
"z  c #4E514E",
"x  c #52524E",
"c  c #5C514B",
"v  c #43525B",
"b  c #565551",
"n  c #624D46",
"m  c #674F4F",
"M  c #62544C",
"N  c #6D564B",
"B  c #6B584D",
"V  c #755648",
"C  c #7E5749",
"Z  c #755A4C",
"A  c #7B5B4D",
"S  c #625B54",
"D  c #745D50",
"F  c #7D5F50",
"G  c #6B635A",
"H  c #756155",
"J  c #7D6254",
"K  c #76675B",
"L  c #7A6759",
"P  c #77695D",
"I  c #7E6B5C",
"U  c #46606F",
"Y  c #5C676C",
"T  c #4C6C7F",
"R  c #576B76",
"E  c #776D61",
"W  c #786F64",
"Q  c #7E7062",
"!  c #7F7468",
"~  c #845C4D",
"^  c #895F4D",
"/  c #855F50",
"(  c #885F50",
")  c #81604F",
"_  c #8A614F",
"`  c #836353",
"'  c #8C6353",
"]  c #846857",
"[  c #8D6955",
"{  c #836758",
"}  c #846B5C",
"|  c #8B6C5C",
" . c #916655",
".. c #916956",
"X. c #936C59",
"o. c #996F5B",
"O. c #8A705F",
"+. c #95715B",
"@. c #99725C",
"#. c #846E60",
"$. c #8A6F60",
"%. c #857363",
"&. c #8B7363",
"*. c #8C7867",
"=. c #867768",
"-. c #86796A",
";. c #8B7A6B",
":. c #917665",
">. c #947B6A",
",. c #987D6B",
"<. c #8A7F70",
"1. c #947F70",
"2. c #8E8576",
"3. c #918373",
"4. c #396782",
"5. c #3A6986",
"6. c #3D6E8B",
"7. c #3E708E",
"8. c #3F7696",
"9. c #406E8A",
"0. c #44708A",
"q. c #487894",
"w. c #417798",
"e. c #437B9C",
"r. c #437EA1",
"t. c #61899D",
"y. c #7C939A",
"u. c #4581A5",
"i. c #4C81A0",
"p. c #4684A9",
"a. c #4A87AB",
"s. c #4B88AD",
"d. c #5887A3",
"f. c #528AAB",
"g. c #4A8CB3",
"h. c #4A8CB4",
"j. c #4B8DB6",
"k. c #4C8FB8",
"l. c #4D92BC",
"z. c #5A94B5",
"x. c #5091B8",
"c. c #5B96B8",
"v. c #7A9BAB",
"b. c #7EA6BE",
"n. c #959D97",
"m. c #9DA197",
"M. c #A8A89C",
"N. c #8F9BA1",
"B. c #8DA2AA",
"V. c #99A9A9",
"C. c #A5ABAE",
"Z. c #BFBDAD",
"A. c #C7B193",
"S. c #D3B692",
"D. c #D5BD9C",
"F. c #C0B9A4",
"G. c #C1BFAF",
"H. c #E5C299",
"J. c #C2C0B0",
"K. c #F0D0A7",
"L. c #FCD5A6",
"P. c #FED7A8",
"I. c #FFD8A9",
"U. c #8BAFC5",
"Y. c #9DB9C9",
"T. c #ACBDC7",
"R. c #B2C2CB",
"E. c #B6CCD9",
"W. c #CAD0D4",
/* pixels */
"2.1.>.>.>.:.&.| $.$.&.| :.| ' [ *.-.I L L I I J I } } I L } I I ",
"*.X.X.o.o. .' ` ' [  .'  . .' ( } =.F A A A / A V Z A / A A A A ",
"%.| ..X...[ ' ' ' [  .[ ' ' ' ' #.%.F Z V A A A Z A / ` A Z A J ",
"#.| ..[ ..[ ' ' [  .' ( ( ' ' ' } =.F V V A A Z A A ~ ` A V A ` ",
"=.&.X.| | [ ' ` } } ` J J } #.#.%.Q Z Z Z Z V Z Z ` ` { J J J ] ",
"*.*.>.:.O.O.] L b g f f f f f f g f f f f a c H K -.&.=.%.Q %.*.",
"....o.o.....A j . 6 q q q + + t y y y y y y v j H =._ ' [ ' [ ..",
"o.o.o.X...` m * o u i.d.0.U T a.h.h.h.h.h.g.7.0 S I _ ' ..' ..o.",
"@.o.o.X.[ c : , * u b.R.R N.Y.f.h.h.h.l.l.l.h.6.0 S ' ' ..' ..o.",
"+.X.o.o.| h - < = u U.W.Y C.E.f.h.6.6.h.l.l.w.e O S [ [ [ ..+.@.",
"<.-.%.*.=.g X ; & u U.W.Y C.E.f.h.7.7.h.l.l.e.t O S *.=.*.3.3.3.",
"} L { ] { k .   & i v.T.R B.Y.s.h.k.k.l.l.l.l.w.6 c { { %.2.*.&.",
"] ` ` ` ` J k # , > i d.q.d.f.p.h.l.l.l.l.l.l.r.9 j A ) { ;.} ] ",
"] ` ` J J ] M * < ; 8 w.r.r.r.p.h.l.l.l.l.l.l.e.6 j ` ` { -.} ` ",
"} ] ` J J ` M # ; X 8 w.r.r.r.r.a.h.p.5.5.5.5.u O j ) ` ` -.} { ",
"%.%.I I #.=.G d 5 o 6 5.e.r.r.p.p.h.8.8 @ 2 5 3 3 B ] ] { -.;.*.",
"3.;.%.} $.&.&.! W g o 7 7.i.f.z.c.c.z.q.4 l L K P ` | | } | *.3.",
"o...' '  . . .:.&.A s 1 9.y.M.Z.G.G.J.M.f n _ ' | ' ' ' ' ' ' X.",
" . .' [  .[ ' } G n s + 0.m.H.L.P.P.I.S.x n ^ ' | ' ' ( ' ' '  .",
" .X. . . .' ' H 3 1 7 w q.m.H.L.P.P.I.S.x j ~ ' |  .' ' ' ' ' ' ",
"| ..[ ' | | | E 5 u e.p.i.n.D.K.L.L.L.A.z j ` %.=.[ [ ' ' [ [ ' ",
"&.&.$.%.*.;.;.E 3 6 p r.u.t.v.V.D.H.F.y.0 c { } #.} ] } } } } %.",
"} ..[ ' ..o...` j . 1 u w.p.g.c.B.V.v.r.6 j C ~ ^ ' ' ( ^ ~ ^ I ",
"| .... ..... .' A h . 1 7.g.s.e.e.a.x.r.6 j ~ ~ ^ ' ' ( ^ ~ C I ",
"X.o... .....' _ ~ A j 1 6.p.9.7 6 4.p.w.9 n ~ ~ ~ ^ ' ' ^ ~ A } ",
"..X.' ' [ ..' ` ~ ` M 1 5.p v b $ u 5.r c A ~ ~ ~ ^ ' ^ ^ ~ ^ } ",
"&.&.%.%.=.*.*.-.=.=.S O e v S G 2 8 r x P I I Q %.%.=.%.} ] } %.",
"[ ' ] } } } | &.-.I M % % c F D a % h Z J J D L %.{ } ] ` ` ` ` ",
"' ' ' ' ' _ ..] %.J Z N N Z J A N N N Z Z A A Z J ^ _ ^ ^ ^ ^ _ ",
"' [ [ ' ' ' ..[ %.J J J ` J ` J A Z V V Z Z Z Z J ^ ' ' _ _ ^ _ ",
"..o.......[ ..X.%.J J ` ] ` ` { F Z Z Z Z A A Z { _ ' ' _ ^ _ _ ",
">.,.,.,.,.>.*.*.-.=.=.*.*.%.} } } L L L L I I L %.| | O.} } } | "
};
