/* XPM */
static char *acz60_vnt49[] = {
/* columns rows colors chars-per-pixel */
"32 32 182 2 ",
"   c #2D121D",
".  c #35181D",
"X  c #3F211B",
"o  c #140323",
"O  c #190327",
"+  c #170429",
"@  c #1A052B",
"#  c #1D0B2A",
"$  c #1E0531",
"%  c #2A0D23",
"&  c #23042C",
"*  c #210E2E",
"=  c #2C0C2C",
"-  c #2C1820",
";  c #25142B",
":  c #29132B",
">  c #311721",
",  c #341E24",
"<  c #391923",
"1  c #331D2E",
"2  c #230735",
"3  c #290733",
"4  c #220A34",
"5  c #2C0934",
"6  c #260738",
"7  c #26093B",
"8  c #2A083A",
"9  c #320C36",
"0  c #330A3B",
"q  c #3A0B3D",
"w  c #2C1431",
"e  c #271930",
"r  c #2F1D33",
"t  c #2C113C",
"y  c #351634",
"u  c #321B33",
"i  c #36123A",
"p  c #3F2927",
"a  c #372228",
"s  c #3C272C",
"d  c #3C282D",
"f  c #362332",
"g  c #3B2433",
"h  c #372837",
"j  c #3F2A37",
"k  c #37273A",
"l  c #3C2D3B",
"z  c #4F2818",
"x  c #582716",
"c  c #50341F",
"v  c #5B3A1D",
"b  c #613817",
"n  c #683817",
"m  c #46182B",
"M  c #410B3F",
"N  c #401330",
"B  c #412825",
"V  c #432D2F",
"C  c #4A3224",
"Z  c #442B35",
"A  c #402C39",
"S  c #43323C",
"D  c #4E333B",
"F  c #503737",
"G  c #553738",
"H  c #54393B",
"J  c #593D3D",
"K  c #67411A",
"L  c #7A4618",
"P  c #7D4B18",
"I  c #6B4C21",
"U  c #60492D",
"Y  c #775927",
"T  c #7B5820",
"R  c #7D622C",
"E  c #2B0D44",
"W  c #2E0E4A",
"Q  c #3F0B40",
"!  c #3D1041",
"~  c #32114E",
"^  c #430B41",
"/  c #4D0F47",
"(  c #4B1147",
")  c #491246",
"_  c #53164C",
"`  c #541B4E",
"'  c #591D51",
"]  c #53204F",
"[  c #463542",
"{  c #4C3B43",
"}  c #523740",
"|  c #533B42",
" . c #5B2255",
".. c #5A2C57",
"X. c #612658",
"o. c #632B5B",
"O. c #68305F",
"+. c #6B3262",
"@. c #6E3866",
"#. c #713E69",
"$. c #4E4147",
"%. c #574545",
"&. c #5C4343",
"*. c #584846",
"=. c #554549",
"-. c #574A50",
";. c #634544",
":. c #654A46",
">. c #6C4D46",
",. c #624A49",
"<. c #6C4C49",
"1. c #724C46",
"2. c #6D5047",
"3. c #6C534D",
"4. c #755249",
"5. c #7B554A",
"6. c #75584B",
"7. c #7B5B4D",
"8. c #645454",
"9. c #6D5955",
"0. c #6F5E57",
"q. c #735C53",
"w. c #7B5E52",
"e. c #6C615F",
"r. c #7D6254",
"t. c #74635A",
"y. c #7C6758",
"u. c #7E6B5C",
"i. c #74426C",
"p. c #7E4C74",
"a. c #7D6B60",
"s. c #7E7265",
"d. c #876625",
"f. c #916C27",
"g. c #91712A",
"h. c #845C4D",
"j. c #895F4E",
"k. c #855F51",
"l. c #895E51",
"z. c #87614F",
"x. c #8A604F",
"c. c #836354",
"v. c #8C6453",
"b. c #866857",
"n. c #8D6855",
"m. c #836758",
"M. c #856B5B",
"N. c #8B6B5B",
"B. c #916656",
"V. c #926A56",
"C. c #946C59",
"Z. c #996F5B",
"A. c #8B705E",
"S. c #96705B",
"D. c #99725C",
"F. c #815077",
"G. c #825479",
"H. c #836F60",
"J. c #8A6F60",
"K. c #857363",
"L. c #8B7363",
"P. c #8E7161",
"I. c #8B7665",
"U. c #8C7867",
"Y. c #857669",
"T. c #86796A",
"R. c #8B7B6B",
"E. c #927664",
"W. c #957A69",
"Q. c #947B6A",
"!. c #987D6B",
"~. c #8A7F70",
"^. c #947F70",
"/. c #8E8576",
"(. c #918373",
"). c #875E80",
"_. c #8C6384",
"`. c #916C8A",
"'. c #977390",
"]. c #997692",
"[. c #9B7994",
"{. c #A3859D",
/* pixels */
"/.^.W.W.W.E.L.N.J.P.P.N.E.N.c.;.; o o f 3.y.u.y.y.M.u.y.y.M.u.u.",
"U.C.C.Z.C.B.v.c.v.n.B.h.4.4.>.G , - , V J >.7.7.6.6.7.w.7.7.7.7.",
"K.N.V.C.V.v.v.v.v.n.n.>.Z 1 1 B v I Y U d D 4.7.6.7.c.c.7.6.7.r.",
"H.N.B.n.B.n.v.v.n.k.4.G ,     X v T g.Y C V J :.4.7.h.c.7.6.7.c.",
"Y.P.C.N.N.n.v.c.N.9.Z B v b x z . c T d.R U d Z 2.m.m.m.r.r.r.m.",
"U.U.W.E.A.A.M.M.T.e.l p v n n z % > v T f.Y p d *.t.H.Y.Y.s.K.L.",
"B.B.S.C.B.B.n.B.N.s.3.F a < m N 9 = > z L P K C s { 5.v.n.v.n.V.",
"C.C.C.C.V.B.C.B.N.R.m.&.; @ 0 q q 5 & . x n n c a D 5.v.B.v.B.C.",
"D.C.C.C.C.C.C.C.N.T.r.&.; & q ^ ^ q 9 =     . p %.q.z.n.B.v.V.Z.",
"S.C.C.C.C.S.C.D.E.Y.3.D : 9 ` ` / ^ q 3 O o + 1 %.t.v.n.n.B.S.D.",
"~.T.K.I.U.U.U.W.R.e.S y q ] i.@._ ^ q 3 O O @ 4 r $.u.I.U.(.(.(.",
"M.m.m.M.M.M.N.N.M.,.; & M O._.G.' ^ q 3 O @ 2 $ + f 3.m.K.(.U.P.",
"b.m.m.m.m.b.N.M.m.&.; & ^ @.[._. .^ q 8 4 4 2 @ + f >.c.m.R.M.M.",
"M.b.m.r.r.b.M.w.3.} w i ..p.].). .^ q 0 8 6 2 @ + f 3.c.m.T.M.m.",
"M.m.c.r.r.m.m.<.j y q .._.`.G.@._ ^ q 0 8 6 2 @ + f 2.c.c.T.M.m.",
"K.K.u.u.H.I.Y.8.; & ^ #.{.[.#.' ( Q 0 8 6 6 6 $ + f 6.M.m.T.R.I.",
"(.R.K.M.N.E.L.8.e & ^ #.{.'.o.( Q 0 8 8 6 7 E 2 + h w.N.N.N.U.(.",
"C.B.v.v.B.l.4.| w 9 ` i.'.). .^ q 0 8 6 7 E E 2 + g 4.v.v.v.v.C.",
"B.B.v.B.B.1.Z y q ] i.F.p.@._ ^ q 0 8 7 E E W 2 O g 4.v.l.v.v.B.",
"n.C.B.B.v.;.: & M X.p.p.+.' ( Q 0 8 6 7 E W W 2 O g 4.v.v.v.v.v.",
"N.V.n.v.N.,.; & M ' @.+.' ( ^ 0 8 8 6 7 E W W 2 + g 5.n.v.n.n.v.",
"P.P.J.K.Y.8.; & M ` o. .( Q 0 8 6 6 7 E W W W 7 O h q.M.M.M.M.K.",
"N.B.n.v.N.:.: & M ` o. .( 0 8 8 6 7 E E W W ~ 7 O g 4.k.h.h.h.u.",
"N.C.V.B.n.;.; & q _  .` ! 0 8 6 6 7 E W W W W t w D 5.v.h.h.5.y.",
"C.C.B.B.n.;.; @ 0 ^ / ( q 0 6 6 6 7 W W ~ E 4 u J 1.k.v.h.h.7.M.",
"V.V.v.v.n.>.g w 5 0 ^ ^ 0 8 6 6 7 E W ~ ~ E O f >.h.v.h.h.h.h.A.",
"P.P.K.K.Y.a.0.{ w & 0 0 8 6 6 7 E W W ~ ~ E O h q.K.Y.K.M.M.M.K.",
"n.v.b.M.M.N.N.,.; @ 5 0 8 6 6 7 E W W W W t w S t.b.N.b.c.c.c.c.",
"v.n.v.v.v.x.v.;.; O 2 8 8 8 6 7 E W ~ E 4 u H :.r.j.x.j.j.j.h.x.",
"v.B.n.v.v.v.v.;.f # 4 2 3 3 4 2 7 E E 7 # f &.3.w.h.v.v.x.x.h.x.",
"B.C.B.B.B.c.7.<.{ u # O O O O + + O @ * r A | &.3.5.j.v.x.j.x.x.",
"W.!.!.!.Q.K.t.8.-.l # o o o o o o o o ; k [ { =.8.w.M.A.M.M.M.N."
};
