/* XPM */
static char *a6w1e_n2tig[] = {
/* columns rows colors chars-per-pixel */
"32 32 60 1 ",
"  c #857567",
". c #8F7767",
"X c #9F8B7D",
"o c #003B84",
"O c #003C85",
"+ c #014088",
"@ c #054389",
"# c #09468B",
"$ c #185192",
"% c #1E5695",
"& c #225997",
"* c #225998",
"= c #245B99",
"- c #2C609D",
"; c #32659F",
": c #3668A1",
"> c #3869A2",
", c #4774A8",
"< c #4875A9",
"1 c #7D9DC1",
"2 c #7F9FC3",
"3 c #958D80",
"4 c #AC9D96",
"5 c #B6A39B",
"6 c #ACB5BE",
"7 c #BBB6B0",
"8 c #BEB8B1",
"9 c #C1BDBA",
"0 c #C6BDBB",
"q c #C4C3BF",
"w c #809FC3",
"e c #81A0C4",
"r c #82A1C4",
"t c #9DB4CE",
"y c #A8BED6",
"u c #B9C0C8",
"i c #ABC0D7",
"p c #ADC2D9",
"a c #BEC7D1",
"s c #BFC8D1",
"d c #B3C6DB",
"f c #B5C7DC",
"g c #B7C8DD",
"h c #CBC9C5",
"j c #CACACF",
"k c #CFCDCF",
"l c #C0C8D0",
"z c #C9CAD0",
"x c #C8CED3",
"c c #CCCDD2",
"v c #C9CED4",
"b c #CAD0D6",
"n c #CFDBE9",
"m c #D3DCE6",
"M c #D4DFEB",
"N c #DBE4EE",
"B c #E5EBF3",
"V c #E9EEF5",
"C c #FAFBFD",
"Z c #FFFFFF",
/* pixels */
"3qu66666666666666666666666666l7 ",
"91=**%%%%%&**********%%%%%&**-t4",
"m%OOO;<,,<&OOOOOOOOOO;<,,<&OOo>c",
"n$OO@dZCCZ1OOOOO++++@pZCCZ1OOO=z",
"n$OO@gZZZZ1OOOOOOOO+@dZZZZwOOO=x",
"n$OO@gZZZZ1OOO++OOOO@dZZZZwOOO=x",
"n$OO@gZZZZ1O++++OOOO@dZZZZ1OOO=x",
"n$OO@gZZZZ1O++++OOOO@dZZZZ1OOO=c",
"n$OO@gZZZZwOOOOOOOOO@dZZZZ1OOO=c",
"n$OO@gZZZZwOOOOOOOOO@dZZZZ1OOO=c",
"n$OO@gZZZZ1OOOOOOOOO@dZZZZwOOO=b",
"n$OO@gZZZZr+@@@@@@@@#dZZZZwOOO=x",
"n$OO@gZZZZNfgggggggggVZZZZwOOO=z",
"n$OO@gZZZZZZZZZZZZZZZZZZZZwOOO=z",
"n$OO@gZZZZZZZZZZZZZZZZZZZZwOOO=z",
"n$OO@gZZZZZZZZZZZZZZZZZZZZwOOO=x",
"n$OO@gZZZZZZZZZZZZZZZZZZZZ1OOO=b",
"n$OO@gZZZZMyyyyyyyyyiBZZZZwOOO=z",
"n$OO@gZZZZrO++++++++@dZZZZwOOO=z",
"n$OO@gZZZZ1OOOOO+OOO@dZZZZwOOO=z",
"n$OO@gZZZZrOOOO+OOOO@dZZZZrOOO=z",
"n$OO@gZZZZrOOOO+OOOO@dZZZZwOOO=v",
"n$OO@gZZZZ1OOO++OOOO@dZZZZ1OOO=v",
"n$OO@gZZZZ1OOO++++OO@dZZZZ1OOO=v",
"n$OO@gZZZZ1O++++++++@dZZZZ1OOO=v",
"n$OO@gZZZZ1O+O++++++@dZZZZ1OOO=v",
"n$OO@gZZZZ1OOOOOOO+O@dZZZZ1OOO=x",
"n$OO@gZZZZwOOOOOOO+O@dZZZZwOOO=z",
"n$OO@dZCCZ1OOOOOOO+O@pZCCZ1OOO=j",
"m%OOO;<,,<&OOOOOOOOOO;<,,<&OOo:k",
"01=&&%%%%%%&&&&&****&%%%%%%&&-t5",
"Xhlsssssssssssssssssssssssssal8."
};
