/* XPM */
static char *an6zv_w5nwb[] = {
/* columns rows colors chars-per-pixel */
"32 32 213 2 ",
"   c None",
".  c #273055",
"X  c #273158",
"o  c #333B56",
"O  c #363D58",
"+  c #252E54",
"@  c #363A68",
"#  c #4F2853",
"$  c #5D265D",
"%  c #5C2E5F",
"&  c #45395C",
"*  c #62275C",
"=  c #453C65",
"-  c #4A3974",
";  c #503370",
":  c #5D2F61",
">  c #36405D",
",  c #39425D",
"<  c #314751",
"1  c #306458",
"2  c #344376",
"3  c #384A7B",
"4  c #354D72",
"5  c #2D7C6D",
"6  c #5A4870",
"7  c #594770",
"8  c #445875",
"9  c #595277",
"0  c #585E7A",
"q  c #69597D",
"w  c #4A6579",
"e  c #52647D",
"r  c #4D766A",
"t  c #6B6A7B",
"y  c #9F3955",
"u  c #AC3B52",
"i  c #A23954",
"p  c #B13E53",
"a  c #92585F",
"s  c #AB4654",
"d  c #B64B5A",
"f  c #A55658",
"g  c #94685D",
"h  c #AB695D",
"j  c #885C60",
"k  c #BB596B",
"l  c #B85567",
"z  c #B34F64",
"x  c #8E6671",
"c  c #BF616D",
"v  c #AF7070",
"b  c #388876",
"n  c #328665",
"m  c #588275",
"M  c #459278",
"N  c #659879",
"B  c #8E867A",
"V  c #B2887D",
"C  c #D29479",
"Z  c #C19C7B",
"A  c #F59B62",
"S  c #F5BB70",
"D  c #FDC672",
"F  c #FECC75",
"G  c #F2C77C",
"H  c #364881",
"J  c #3A4E8A",
"K  c #314B81",
"L  c #3C748D",
"P  c #3754A8",
"I  c #3955B1",
"U  c #4A5C8A",
"Y  c #445886",
"T  c #524382",
"R  c #645D88",
"E  c #526681",
"W  c #556C86",
"Q  c #576A87",
"!  c #5C738C",
"~  c #547385",
"^  c #4A6395",
"/  c #52788A",
"(  c #656888",
")  c #6B7E95",
"_  c #637992",
"`  c #7A6A8B",
"'  c #405DB6",
"]  c #5574A8",
"[  c #4B6ABD",
"{  c #4D77BA",
"}  c #547ABC",
"|  c #5879BE",
" . c #4277A6",
".. c #395DCB",
"X. c #3A5BC3",
"o. c #3C6CCF",
"O. c #4D7BC5",
"+. c #4C77C7",
"@. c #5474C7",
"#. c #5577C9",
"$. c #547DC4",
"%. c #8D768A",
"&. c #8C7D95",
"*. c #927B90",
"=. c #A07C91",
"-. c #30818F",
";. c #36979C",
":. c #56859C",
">. c #6E849B",
",. c #71869A",
"<. c #72889E",
"1. c #6F9081",
"2. c #76AE9D",
"3. c #4F8CAD",
"4. c #738FA4",
"5. c #788EA3",
"6. c #7D92A5",
"7. c #7994A8",
"8. c #6E93BC",
"9. c #7196BE",
"0. c #728CB6",
"q. c #7FAABC",
"w. c #68C0BA",
"e. c #5399CC",
"r. c #498FCA",
"t. c #6691C3",
"y. c #4CB0D1",
"u. c #6AAFCE",
"i. c #459BE0",
"p. c #4CB7F7",
"a. c #4FB3EB",
"s. c #6DB3E4",
"d. c #6FD4DF",
"f. c #7AD3DD",
"g. c #6AC8D1",
"h. c #69DAEC",
"j. c #7ADBE6",
"k. c #6DC7E4",
"l. c #7CE6EB",
"z. c #6BE4F9",
"x. c #73F1F9",
"c. c #7EF0F7",
"v. c #72E8F0",
"b. c #8A8199",
"n. c #91829B",
"m. c #9C8997",
"M. c #85A39B",
"N. c #829AAE",
"B. c #889CAF",
"V. c #8597A8",
"C. c #849DB2",
"Z. c #889EB1",
"A. c #939EAD",
"S. c #9DA7AA",
"D. c #8BA4B6",
"F. c #8BA7B9",
"G. c #8DA9BC",
"H. c #85A4B8",
"J. c #92ABBD",
"K. c #9EB0BF",
"L. c #BAA7B4",
"P. c #AAB6B5",
"I. c #B0B2B3",
"U. c #D08D98",
"Y. c #D1939E",
"T. c #CD8B98",
"R. c #CA95A1",
"E. c #D49BA5",
"W. c #D095A1",
"Q. c #D6A2AC",
"!. c #D9A6AF",
"~. c #D9ABB3",
"^. c #D9A7B0",
"/. c #DDB4BB",
"(. c #C1B4BF",
"). c #84D1B8",
"_. c #A8D1B3",
"`. c #91ADC0",
"'. c #8EBBCA",
"]. c #94B3C4",
"[. c #9BB5C5",
"{. c #9ABCCB",
"}. c #97BACA",
"|. c #8EABC1",
" X c #A8BAC7",
".X c #BCBBC5",
"XX c #C4BAC5",
"oX c #C2B6C1",
"OX c #88C9D5",
"+X c #B9C3CC",
"@X c #BAC8D1",
"#X c #A2CED1",
"$X c #86E0CE",
"%X c #89DBE7",
"&X c #98D6E3",
"*X c #8BE4EC",
"=X c #9AE7ED",
"-X c #82F1F8",
";X c #9DF2F7",
":X c #95E9F0",
">X c #B4E5EB",
",X c #C8CBD3",
"<X c #C6CFD2",
"1X c #E8CFD3",
"2X c #D8E6DB",
"3X c #C5DEE5",
"4X c #D8DFE4",
"5X c #D9E8E5",
"6X c #CBF2F5",
"7X c #CFE9ED",
"8X c #E3F4F5",
"9X c #F7F5F5",
"0X c #E7EBED",
/* pixels */
"                                                                ",
"              F D                                               ",
"              F D A                                             ",
"              F D A                                             ",
"        F F F F F D F D                                         ",
"  +.O.0.G F F F F F F D V O.O.$.{ H H H H H H H J               ",
"  G.G.J.P.P.I.G D Z S.S.A.G.G.|.N.E E E E E E E !               ",
"    n.n.n.n.m.G D v &.n.n.n.n.n.` 9 9 9 9 9 9 9 (               ",
"    u u u u d S D h i u u u u y * $ $ $ $ $ $ $                 ",
"    d k k k c C C v z k l k l i * $ $ $ $ $ $ $                 ",
"    R.~.E.~.E.T.W.W.Y.E.Y.E.L.=.` 6 6 6 6 6 6 6 0               ",
"  ].L.U.Y.E.!.~.Q.~./.!.E.U.+XJ.B.W W W W W W W !               ",
"  ].L.Y.Y.~.^.E.1X/./.!.Q.U..XG.B.3.r.e.:.e _ ) <.              ",
"  ]. XXX(.oXL.oX,XL.XXXX,XL.K.J.H.i.p.z.3.> e 5.[.@X            ",
"  ].].].].[.{.[.].].].].].[.[.[.C.i.z.z.3.o o , e N.J.K.        ",
"  ].H.j.%X@X0X#X%Xj.g.=X+X5X>X{.D.d.z.p. .o & = O e ! _         ",
"  ].H.*X3X,X6XOXl.j.OX8X,X>X:X{.D.g.y.;.L o # : , e ~ M b 5     ",
"  ].J.{. X[.{.].'.'.[. X[.'.}.[.B./ b 5 4 o # % O e t r = @ =   ",
"  t.8.9.8.8.8.9.9.9.8.9.8.8.8.8.] 8 L -.3 2 - T 3 J R q ; - ;   ",
"  +.} } } } } } } } } } } } } $.] Y } } } } } } } } | ] 3 3 3   ",
"  D.G.G.G.F.F.F.F.F.F.F.F.F.F.G.V.>.N.N.N.N.N.N.N.N.C.,.e W !   ",
"o.{ } } } } } } } } } } } } } ^ E 5.F.F.F.F.F.F.F.F.G.6.e W !   ",
"..............................K 4 7.OX%Xj.j.%X3X4X3X&XB.e E Q   ",
"X.[ I P [ @.@.#.#.#.#.@.@.I P ^ E 5.f.x.x.c.6X9X8X;X*XB.e t e   ",
"  >.U X 6.].J.*.%.%.b.`.H.2 > G.B.4.d.x.c.6X9X8X;X-Xl.N.Q 0 0   ",
"  >.U X 6.].J.&.%.%.b.J.H.2 > J.B.4.d.l.#X2X5X=X-Xx.*XB.W E !   ",
"  >.U X V. X].u.s.k.&X XJ.2 > J.B.4.f.).M._.).w.g.$X3XB.W W !   ",
"  <.U X V.P.J.e.a.h.=XS.) 2 > J.B.7.2.N m N 1.m m 1.A.B.~ w 8   ",
"  F.U . 6.[.J.u.h.h.%X6.e 2 O F.B.5.B g g f f f h j ( 6.r n @ 8 ",
"  C.Y + ,.`.F.u.h.a.s.F.7.2 o 6.5.>.x s f p p s f a 0 ) < 1 Q Q ",
"                                                                ",
"                                                                "
};
