/* XPM */
static char *am3hn_72soc[] = {
/* columns rows colors chars-per-pixel */
"32 32 17 1 ",
"  c None",
". c #420000",
"X c #660000",
"o c #6C1200",
"O c #961715",
"+ c #A20000",
"@ c #C43A16",
"# c #9E4E0F",
"$ c #B44521",
"% c #D6503D",
"& c #D07B21",
"* c #B74E4A",
"= c #DD594D",
"- c #E4A039",
"; c #E48283",
": c #F6B2B2",
"> c #F4DCC0",
/* pixels */
"                                ",
"                                ",
"                                ",
"                                ",
"                  .o..          ",
"                .o-.O@.         ",
"               .->.@%%@..       ",
"              .->X@%=%O.-.      ",
"              o>-O%%;%.>&.      ",
"             .->X@%;%@.-&.      ",
"             o>-O%%;%O$&&.      ",
"            .->X@%%%@.>&#.      ",
"            o>-O%%=%O$-&o       ",
"           o->O@%;%@.>&&.       ",
"          o->O@%%%@O$>&&.       ",
"         o->O@%%;@O.>-&#.       ",
"        o->X@@%:@O.->&&o        ",
"       .->X@@@;%O.->-&&.        ",
"       .->O@@@%@X->>&&#         ",
"      .&>X*@@=@O$>>-&&.         ",
"      .&>X=@=@@X->-&&#          ",
"      .#>X;=:=;X>-&&&.          ",
"      .#>.=;=:=.>&&&.           ",
"       .-.@=;=O.-&&#.           ",
"       .&-.+@O.-&&#.            ",
"        .&-...-&&#.             ",
"         ..--&###.              ",
"           ......               ",
"                                ",
"                                ",
"                                ",
"                                "
};
